<svg xmlns="http://www.w3.org/2000/svg" xmlns:xlink="http://www.w3.org/1999/xlink" version="1.1" width="1000" height="1000" viewBox="0 0 1000 1000" xml:space="preserve">
<desc>Created with Fabric.js 3.5.0</desc>
<defs>
</defs>
<rect x="0" y="0" width="100%" height="100%" fill="rgba(255,255,255,0)"/>
<g transform="matrix(25.9496 0 0 25.9496 500.0007 500.0006)" id="84639">
<path style="stroke: none; stroke-width: 1; stroke-dasharray: none; stroke-linecap: butt; stroke-dashoffset: 0; stroke-linejoin: miter; stroke-miterlimit: 4; is-custom-font: none; font-file-url: none; fill: rgb(249,0,77); fill-rule: nonzero; opacity: 1;" vector-effect="non-scaling-stroke" transform=" translate(-17.5165, -17.5171)" d="M 11.811 10.535 l -6.983 6.984 l 6.983 6.981 c 0.78 0.781 0.78 2.048 0 2.828 c -0.392 0.392 -0.901 0.586 -1.414 0.586 c -0.513 0 -1.022 -0.194 -1.414 -0.586 l -8.397 -8.396 C 0.211 18.558 0 18.049 0 17.519 c 0 -0.529 0.211 -1.039 0.586 -1.414 l 8.397 -8.398 c 0.781 -0.78 2.047 -0.78 2.828 0 C 12.591 8.488 12.591 9.752 11.811 10.535 z M 34.447 16.104 l -8.396 -8.398 c -0.781 -0.78 -2.047 -0.78 -2.828 0 c -0.781 0.781 -0.781 2.047 0 2.828 l 6.982 6.984 L 23.223 24.5 c -0.781 0.781 -0.781 2.048 0 2.828 c 0.392 0.392 0.902 0.586 1.414 0.586 s 1.023 -0.194 1.414 -0.586 l 8.396 -8.396 c 0.375 -0.375 0.586 -0.884 0.586 -1.414 C 35.033 16.99 34.822 16.479 34.447 16.104 z M 21.012 3.831 c -1.076 -0.277 -2.161 0.373 -2.435 1.441 l -6 23.498 c -0.272 1.07 0.373 2.16 1.442 2.434 c 0.167 0.043 0.334 0.063 0.497 0.063 c 0.894 0 1.706 -0.603 1.937 -1.505 l 6 -23.498 C 22.727 5.193 22.081 4.104 21.012 3.831 z" stroke-linecap="round"/>
</g>
</svg>