<svg xmlns="http://www.w3.org/2000/svg" xmlns:xlink="http://www.w3.org/1999/xlink" version="1.1" width="1000" height="1000" viewBox="0 0 1000 1000" xml:space="preserve">
<desc>Created with Fabric.js 3.5.0</desc>
<defs>
</defs>
<rect x="0" y="0" width="100%" height="100%" fill="rgba(255,255,255,0)"/>
<g transform="matrix(1.7756 0 0 1.7756 500.0081 500.0081)" id="751152">
<g style="" vector-effect="non-scaling-stroke">
		<g transform="matrix(1 0 0 1 0 -73.8935)" id="Layer_1">
<path style="stroke: none; stroke-width: 1; stroke-dasharray: none; stroke-linecap: butt; stroke-dashoffset: 0; stroke-linejoin: miter; stroke-miterlimit: 4; is-custom-font: none; font-file-url: none; fill: rgb(249,0,77); fill-rule: nonzero; opacity: 1;" transform=" translate(-256, -182.1065)" d="M 478.317 241.475 c -12.793 -62.348 -51.312 -115.494 -103.908 -147.797 h 50.577 c 6.619 16.298 22.615 27.826 41.262 27.826 c 24.549 0 44.522 -19.972 44.522 -44.522 c 0 -24.549 -19.972 -44.522 -44.522 -44.522 c -18.647 0 -34.642 11.528 -41.262 27.826 H 301.754 V 31.228 h -91.508 v 29.059 H 87.016 c -6.619 -16.298 -22.615 -27.826 -41.262 -27.826 c -24.549 0 -44.522 19.972 -44.522 44.522 c 0 24.549 19.972 44.522 44.522 44.522 c 18.647 0 34.642 -11.528 41.262 -27.826 h 50.578 c -52.597 32.303 -91.116 85.449 -103.908 147.797 H 0 v 91.508 h 91.508 v -91.508 h -23.61 c 17.005 -70.029 72.319 -125.343 142.348 -142.35 v 23.611 h 91.508 v -23.61 c 70.029 17.005 125.343 72.32 142.349 142.35 h -23.611 v 91.508 H 512 v -91.509 H 478.317 z" stroke-linecap="round"/>
</g>
		<g transform="matrix(1 0 0 1 0 42.642)" id="Layer_1">
<path style="stroke: none; stroke-width: 1; stroke-dasharray: none; stroke-linecap: butt; stroke-dashoffset: 0; stroke-linejoin: miter; stroke-miterlimit: 4; is-custom-font: none; font-file-url: none; fill: rgb(249,0,77); fill-rule: nonzero; opacity: 1;" transform=" translate(-256, -298.642)" d="M 272.696 195.083 v 90.618 c 10.812 5.915 18.146 17.392 18.146 30.585 c 0 19.242 -15.599 34.842 -34.842 34.842 c -19.242 0 -34.842 -15.599 -34.842 -34.842 c 0 -13.193 7.334 -24.672 18.146 -30.585 v -90.618 L 134.712 336.806 l 35.328 65.395 H 341.96 l 35.328 -65.395 L 272.696 195.083 z" stroke-linecap="round"/>
</g>
		<g transform="matrix(1 0 0 1 0 202.182)" id="Layer_1">
<polygon style="stroke: none; stroke-width: 1; stroke-dasharray: none; stroke-linecap: butt; stroke-dashoffset: 0; stroke-linejoin: miter; stroke-miterlimit: 4; is-custom-font: none; font-file-url: none; fill: rgb(249,0,77); fill-rule: nonzero; opacity: 1;" points="80.254,-22.59 -80.254,-22.59 -98.609,22.59 0,22.59 98.609,22.59 "/>
</g>
</g>
</g>
</svg>