<svg xmlns="http://www.w3.org/2000/svg" xmlns:xlink="http://www.w3.org/1999/xlink" version="1.1" width="1000" height="1000" viewBox="0 0 1000 1000" xml:space="preserve">
<desc>Created with Fabric.js 3.5.0</desc>
<defs>
</defs>
<rect x="0" y="0" width="100%" height="100%" fill="rgba(255,255,255,0)"/>
<g transform="matrix(3.6796 0 0 3.6796 500.0047 500.0047)" id="682487">
<g style="" vector-effect="non-scaling-stroke">
		<g transform="matrix(1 0 0 1 -20.0136 -0.0003)" id="Capa_1">
<path style="stroke: none; stroke-width: 1; stroke-dasharray: none; stroke-linecap: butt; stroke-dashoffset: 0; stroke-linejoin: miter; stroke-miterlimit: 4; is-custom-font: none; font-file-url: none; fill: rgb(249,0,77); fill-rule: nonzero; opacity: 1;" transform=" translate(-103.5188, -123.5322)" d="M 160.551 36.935 c -0.614 -1.892 -1.956 -3.462 -3.727 -4.365 c -1.774 -0.904 -3.831 -1.065 -5.724 -0.45 l -31.376 10.196 c -3.939 1.28 -6.096 5.511 -4.815 9.45 l 1.568 4.828 l -79.811 58.625 L 5.183 125.448 c -1.892 0.615 -3.462 1.956 -4.365 3.728 c -0.903 1.772 -1.065 3.831 -0.45 5.723 l 19.129 58.862 c 1.03 3.169 3.97 5.184 7.131 5.184 c 0.769 0 1.55 -0.119 2.32 -0.369 l 31.478 -10.229 l 16.173 0.085 c 3.248 15.336 16.888 26.88 33.176 26.88 c 16.164 0 29.714 -11.371 33.095 -26.531 l 16.587 0.087 l 1.568 4.829 c 0.614 1.892 1.955 3.462 3.728 4.365 c 1.064 0.542 2.232 0.817 3.405 0.817 c 0.78 0 1.563 -0.122 2.317 -0.367 l 31.377 -10.195 c 3.939 -1.28 6.096 -5.511 4.816 -9.45 L 160.551 36.935 z M 31.444 181.992 l -14.492 -44.597 l 18.364 -5.967 l 14.49 44.597 L 31.444 181.992 z M 109.774 200.312 c -7.912 0 -14.694 -4.887 -17.513 -11.797 l 34.958 0.184 C 124.356 195.514 117.617 200.312 109.774 200.312 z M 64.714 173.369 l -7.888 -24.277 l -7.888 -24.277 l 72.419 -53.194 l 22.209 68.349 l 11.006 33.873 L 64.714 173.369 z M 172.972 181.929 l -0.921 -2.833 c -0.001 -0.005 -0.002 -0.011 -0.004 -0.017 l -19.815 -60.983 l -20.74 -63.833 l 17.111 -5.561 l 41.48 127.665 L 172.972 181.929 z" stroke-linecap="round"/>
</g>
		<g transform="matrix(1 0 0 1 72.4115 -70.0271)" id="Capa_1">
<path style="stroke: none; stroke-width: 1; stroke-dasharray: none; stroke-linecap: butt; stroke-dashoffset: 0; stroke-linejoin: miter; stroke-miterlimit: 4; is-custom-font: none; font-file-url: none; fill: rgb(249,0,77); fill-rule: nonzero; opacity: 1;" transform=" translate(-195.944, -53.5054)" d="M 185.807 73.393 c 1.092 0.556 2.254 0.819 3.4 0.819 c 2.73 0 5.363 -1.496 6.688 -4.096 l 13.461 -26.41 c 1.882 -3.69 0.415 -8.207 -3.275 -10.088 c -3.69 -1.88 -8.207 -0.415 -10.088 3.276 l -13.461 26.41 C 180.65 66.995 182.117 71.512 185.807 73.393 z" stroke-linecap="round"/>
</g>
		<g transform="matrix(1 0 0 1 102.0321 21.1349)" id="Capa_1">
<path style="stroke: none; stroke-width: 1; stroke-dasharray: none; stroke-linecap: butt; stroke-dashoffset: 0; stroke-linejoin: miter; stroke-miterlimit: 4; is-custom-font: none; font-file-url: none; fill: rgb(249,0,77); fill-rule: nonzero; opacity: 1;" transform=" translate(-225.5646, -144.6674)" d="M 242.176 144.712 l -26.414 -13.455 c -3.691 -1.879 -8.207 -0.412 -10.087 3.279 c -1.881 3.691 -0.412 8.207 3.278 10.087 l 26.414 13.455 c 1.091 0.555 2.253 0.818 3.398 0.818 c 2.73 0 5.364 -1.497 6.689 -4.097 C 247.335 151.109 245.867 146.593 242.176 144.712 z" stroke-linecap="round"/>
</g>
		<g transform="matrix(1 0 0 1 101.9362 -29.2261)" id="Capa_1">
<path style="stroke: none; stroke-width: 1; stroke-dasharray: none; stroke-linecap: butt; stroke-dashoffset: 0; stroke-linejoin: miter; stroke-miterlimit: 4; is-custom-font: none; font-file-url: none; fill: rgb(249,0,77); fill-rule: nonzero; opacity: 1;" transform=" translate(-225.4687, -94.3065)" d="M 204.242 101.204 c 1.03 3.169 3.97 5.184 7.131 5.184 c 0.769 0 1.55 -0.119 2.32 -0.369 l 28.188 -9.16 c 3.938 -1.28 6.095 -5.511 4.814 -9.451 c -1.28 -3.94 -5.511 -6.092 -9.451 -4.815 l -28.188 9.16 C 205.118 93.034 202.962 97.265 204.242 101.204 z" stroke-linecap="round"/>
</g>
</g>
</g>
</svg>